HIERARCHY
ROOT Hips
{
	OFFSET 0.000000 0.000000 0.000000 
	CHANNELS 6 Xposition Yposition Zposition Zrotation Yrotation Xrotation
	JOINT LeftUpLeg
	{
		OFFSET 1.363060 -1.794630 0.839290 
		CHANNELS 3 Zrotation Yrotation Xrotation
		JOINT LeftLeg
		{
			OFFSET 2.448110 -6.726130 0.000000 
			CHANNELS 3 Zrotation Yrotation Xrotation
			JOINT LeftFoot
			{
				OFFSET 2.562200 -7.039590 0.000000 
				CHANNELS 3 Zrotation Yrotation Xrotation
				JOINT LeftToeBase
				{
					OFFSET 0.157640 -0.433110 2.322550 
					CHANNELS 3 Zrotation Yrotation Xrotation
					End Site
					{
						OFFSET 0.000000 0.000000 0.000000 
					}
				}
			}
		}
	}
	JOINT RightUpLeg
	{
		OFFSET -1.305520 -1.794630 0.839290 
		CHANNELS 3 Zrotation Yrotation Xrotation
		JOINT RightLeg
		{
			OFFSET -2.542530 -6.985550 0.000000 
			CHANNELS 3 Zrotation Yrotation Xrotation
			JOINT RightFoot
			{
				OFFSET -2.568260 -7.056230 0.000000 
				CHANNELS 3 Zrotation Yrotation Xrotation
				JOINT RightToeBase
				{
					OFFSET -0.164730 -0.452590 2.363150 
					CHANNELS 3 Zrotation Yrotation Xrotation
					End Site
					{
						OFFSET 0.000000 0.000000 0.000000 
					}
				}
			}
		}
	}
	JOINT Spine
	{
		OFFSET 0.028270 2.035590 -0.193380 
		CHANNELS 3 Zrotation Yrotation Xrotation
		JOINT Spine1
		{
			OFFSET 0.056720 2.048850 -0.042750 
			CHANNELS 3 Zrotation Yrotation Xrotation
			JOINT Neck1
			{
				OFFSET -0.054170 1.746240 0.172020 
				CHANNELS 3 Zrotation Yrotation Xrotation
				JOINT Head
				{
					OFFSET 0.104070 1.761360 -0.123970 
					CHANNELS 3 Zrotation Yrotation Xrotation
					End Site
					{
						OFFSET 0.000000 0.000000 0.000000 
					}
				}
			}
			JOINT LeftArm
			{
				OFFSET 3.362410 1.200890 -0.311210 
				CHANNELS 3 Zrotation Yrotation Xrotation
				JOINT LeftForeArm
				{
					OFFSET 4.983000 -0.000000 -0.000000 
					CHANNELS 3 Zrotation Yrotation Xrotation
					JOINT LeftHand
					{
						OFFSET 3.483560 -0.000000 -0.000000 
						CHANNELS 3 Zrotation Yrotation Xrotation
						JOINT LeftHandIndex1
						{
							OFFSET 0.715260 -0.000000 -0.000000 
							CHANNELS 3 Zrotation Yrotation Xrotation
							End Site
							{
								OFFSET 0.000000 0.000000 0.000000 
							}
						}
					}
				}
			}
			JOINT RightArm
			{
				OFFSET -3.136600 1.374050 -0.404650 
				CHANNELS 3 Zrotation Yrotation Xrotation
				JOINT RightForeArm
				{
					OFFSET -5.241900 -0.000000 -0.000000 
					CHANNELS 3 Zrotation Yrotation Xrotation
					JOINT RightHand
					{
						OFFSET -3.444170 -0.000000 -0.000000 
						CHANNELS 3 Zrotation Yrotation Xrotation
						JOINT RightHandIndex1
						{
							OFFSET -0.622530 -0.000000 -0.000000 
							CHANNELS 3 Zrotation Yrotation Xrotation
							End Site
							{
								OFFSET 0.000000 0.000000 0.000000 
							}
						}
					}
				}
			}
		}
	}
}
MOTION
Frames: 15
Frame Time: 0.041667
1.693078 18.006605 0.616283 142.266891 87.388751 154.908326 -14.391837 0.342302 -16.506087 0.800393 4.319908 12.672381 1.731704 -6.111625 4.977395 2.073100 -9.016800 -25.847800 3.163894 1.231113 -1.183984 -0.467368 0.415905 0.926347 0.172677 -1.596359 6.413672 0.000000 0.000000 0.000000 1.126352 -0.889255 -3.391590 -3.452187 -0.266982 2.655183 5.843399 -2.304189 22.998813 -0.207900 0.068800 10.665900 -81.584051 0.735033 45.990519 35.130852 -40.678103 -11.607826 -0.035549 2.453835 -17.281646 -7.125000 0.000000 0.000000 85.092690 2.286382 42.820183 -26.059108 33.993985 -4.969612 -1.450915 -1.838933 1.919009 7.125000 0.000000 0.000000 
1.697257 18.005925 0.615117 141.222965 87.464720 153.853011 -14.419390 0.356021 -16.466243 0.802466 4.327056 12.692549 1.721551 -6.054226 4.877459 2.062800 -8.995800 -25.782100 3.166728 1.230117 -1.186699 -0.467524 0.414091 0.925727 0.172150 -1.598202 6.413164 0.000000 0.000000 0.000000 1.161205 -0.900287 -3.403233 -3.436779 -0.273824 2.663335 5.780831 -2.241613 22.952613 -0.220500 0.086500 10.648200 -81.579365 0.767788 46.130299 34.909017 -40.516070 -11.501252 0.151236 2.601389 -17.216335 -7.125000 0.000000 0.000000 85.120029 2.249918 42.795403 -25.868178 33.822465 -4.927378 -1.487133 -1.846226 1.847789 7.125000 0.000000 0.000000 
1.702698 18.004564 0.613174 139.884674 87.509201 152.490375 -14.485063 0.368002 -16.381111 0.800328 4.312140 12.655452 1.706284 -5.969530 4.852168 2.098000 -9.067300 -26.005900 3.170410 1.228602 -1.190208 -0.467670 0.411571 0.924785 0.171413 -1.600792 6.412462 0.000000 0.000000 0.000000 1.151449 -0.911469 -3.396749 -3.434864 -0.279347 2.684905 5.819479 -2.199241 22.874726 -0.199400 0.102100 10.620900 -81.563686 0.813210 46.214634 34.770039 -40.351168 -11.346323 -0.113835 2.320773 -17.206815 -7.125000 0.000000 0.000000 85.218526 2.187826 42.602384 -25.711251 33.677510 -4.871081 -1.488789 -1.839188 1.971036 7.125000 0.000000 0.000000 
1.708529 18.004467 0.611327 139.260454 87.582373 151.875738 -14.487909 0.395445 -16.361085 0.798338 4.305854 12.635987 1.693661 -5.896689 4.806018 2.150300 -9.172400 -26.336100 3.172381 1.227954 -1.192125 -0.467782 0.410328 0.924385 0.171098 -1.602040 6.412107 0.000000 0.000000 0.000000 1.205887 -0.917867 -3.403337 -3.435979 -0.283342 2.725636 5.817138 -2.135781 22.759039 -0.190800 0.120900 10.577000 -81.572775 0.830875 46.361204 34.462889 -40.127602 -11.202496 0.172783 2.542517 -17.267661 -7.125000 0.000000 0.000000 85.306012 2.129569 42.303072 -25.529453 33.501834 -4.802333 -1.495154 -1.808457 2.261116 7.125000 0.000000 0.000000 
1.714748 18.004953 0.608801 139.292545 87.632183 151.918013 -14.458144 0.387742 -16.310101 0.793249 4.288817 12.583262 1.686970 -5.855711 4.814243 2.106500 -9.084500 -26.060000 3.172536 1.227970 -1.192283 -0.467805 0.410272 0.924400 0.171131 -1.602079 6.412086 0.000000 0.000000 0.000000 1.238005 -0.947335 -3.400238 -3.461726 -0.298045 2.764362 5.670448 -2.052130 22.710364 -0.240800 0.145100 10.565900 -81.568606 0.806525 46.489127 34.111895 -39.840416 -11.001890 0.245265 2.623192 -17.333238 -7.125000 0.000000 0.000000 85.419327 2.129331 42.092634 -25.278204 33.271332 -4.719416 -1.509511 -1.789786 2.491546 7.125000 0.000000 0.000000 
1.721453 18.004175 0.606566 137.690709 87.661606 150.275286 -14.546724 0.439004 -16.234275 0.794060 4.282494 12.574144 1.680393 -5.823307 4.766672 2.092300 -9.055800 -25.969900 3.176769 1.226263 -1.196065 -0.468006 0.407504 0.923344 0.170327 -1.604957 6.411389 0.000000 0.000000 0.000000 1.268216 -0.967216 -3.364047 -3.424670 -0.310201 2.793210 5.596095 -1.983088 22.643957 -0.256500 0.163000 10.545400 -81.640547 0.802653 46.559492 33.763800 -39.539623 -10.785522 0.208892 2.631838 -17.273957 -7.125000 0.000000 0.000000 85.462218 2.124252 41.996248 -25.012985 33.019849 -4.639361 -1.534710 -1.775112 2.594159 7.125000 0.000000 0.000000 
1.726603 18.003398 0.607149 136.691128 87.689825 149.255469 -14.586406 0.494361 -16.189215 0.791786 4.268217 12.539353 1.680620 -5.826658 4.792394 2.078700 -9.028100 -25.883200 3.179736 1.225053 -1.198879 -0.468124 0.405486 0.922596 0.169755 -1.607028 6.410831 0.000000 0.000000 0.000000 1.294060 -0.996805 -3.357460 -3.386322 -0.326141 2.792111 5.514712 -1.899859 22.557129 -0.281600 0.190200 10.520000 -81.685576 0.825423 46.593683 33.380204 -39.190667 -10.529680 0.094446 2.571972 -17.078894 -7.125000 0.000000 0.000000 85.545148 2.083326 41.772508 -24.808983 32.835171 -4.580746 -1.550253 -1.771742 2.832470 7.125000 0.000000 0.000000 
1.730296 18.001940 0.606177 137.387980 87.792911 149.924197 -14.474049 0.510915 -16.125434 0.785244 4.259662 12.496999 1.667485 -5.742989 4.833182 2.083500 -9.037800 -25.913700 3.178693 1.225851 -1.197986 -0.468159 0.406409 0.923091 0.170118 -1.606006 6.411048 0.000000 0.000000 0.000000 1.391100 -0.990276 -3.391839 -3.411161 -0.323255 2.748353 5.434430 -1.835827 22.550648 -0.301100 0.210500 10.521300 -81.706605 0.850337 46.841850 32.973970 -38.810473 -10.258663 -0.159136 2.469597 -17.195408 -7.125000 0.000000 0.000000 85.629353 1.955460 41.406050 -24.682942 32.707083 -4.521973 -1.533489 -1.748553 3.128037 7.125000 0.000000 0.000000 
1.736029 18.001649 0.603650 135.538916 87.839196 148.053480 -14.556611 0.556750 -16.036034 0.782768 4.239984 12.449928 1.657235 -5.689494 4.787265 2.093200 -9.057600 -25.975700 3.184886 1.223219 -1.204282 -0.468325 0.401938 0.921455 0.168850 -1.610544 6.409686 0.000000 0.000000 0.000000 1.398659 -0.980962 -3.422072 -3.378924 -0.321061 2.731829 5.380218 -1.804423 22.561003 -0.312800 0.218600 10.522200 -81.750349 0.890751 47.147679 32.516708 -38.394215 -9.986312 -0.377642 2.446645 -17.599627 -7.125000 0.000000 0.000000 85.690082 1.832292 41.173737 -24.541429 32.561158 -4.461298 -1.522007 -1.729386 3.411707 7.125000 0.000000 0.000000 
1.742832 18.001455 0.599666 134.517819 87.904981 147.042299 -14.573686 0.543559 -15.968047 0.781546 4.233162 12.431095 1.641379 -5.601306 4.711700 2.048600 -8.966600 -25.691000 3.188671 1.221785 -1.208202 -0.468460 0.399309 0.920563 0.168145 -1.613176 6.408863 0.000000 0.000000 0.000000 1.457379 -0.992436 -3.458290 -3.378834 -0.329661 2.740603 5.397880 -1.762793 22.541773 -0.293900 0.233800 10.516400 -81.843341 0.955991 47.481774 32.090859 -38.024138 -9.760008 -0.392093 2.549062 -18.318829 -7.125000 0.000000 0.000000 85.722714 1.738349 41.003859 -24.353714 32.363975 -4.385074 -1.511133 -1.709981 3.801898 7.125000 0.000000 0.000000 
1.747690 18.000483 0.598403 132.588739 87.930768 145.138743 -14.661875 0.590600 -15.960905 0.781413 4.219330 12.407109 1.634489 -5.569704 4.672331 2.052400 -8.974400 -25.715200 3.195324 1.218875 -1.215164 -0.468592 0.394382 0.918758 0.166757 -1.618159 6.407318 0.000000 0.000000 0.000000 1.473345 -1.013673 -3.506460 -3.330364 -0.343576 2.746562 5.361765 -1.687471 22.489355 -0.300700 0.263600 10.495800 -81.920653 0.992220 47.902261 31.722848 -37.709365 -9.580026 -0.334506 2.696591 -19.190975 -7.125000 0.000000 0.000000 85.751186 1.634329 40.897225 -24.165190 32.180831 -4.336096 -1.541803 -1.692421 3.943217 7.125000 0.000000 0.000000 
1.751189 17.998734 0.597528 131.862719 87.945059 144.446688 -14.675108 0.535344 -15.957489 0.782091 4.218576 12.409644 1.620835 -5.496243 4.667693 2.042700 -8.954500 -25.653200 3.198035 1.217873 -1.218118 -0.468680 0.392475 0.918135 0.166222 -1.620048 6.406687 0.000000 0.000000 0.000000 1.530598 -1.045702 -3.560872 -3.288221 -0.361588 2.739472 5.282408 -1.611741 22.464972 -0.315600 0.286900 10.495400 -81.995957 1.018750 48.350499 31.398871 -37.431652 -9.430252 -0.320837 2.833396 -19.940509 -7.125000 0.000000 0.000000 85.710656 1.483761 40.974115 -24.043160 32.054970 -4.315500 -1.577833 -1.692490 3.728723 7.125000 0.000000 0.000000 
1.757602 17.998734 0.595293 131.452405 87.931228 144.035604 -14.700694 0.481141 -15.903274 0.785159 4.227849 12.436909 1.614377 -5.461579 4.572992 2.014500 -8.896100 -25.471000 3.199672 1.217195 -1.219905 -0.468712 0.391260 0.917714 0.165891 -1.621260 6.406284 0.000000 0.000000 0.000000 1.544753 -1.067073 -3.585472 -3.276299 -0.373259 2.750400 5.356254 -1.596412 22.427356 -0.286000 0.297400 10.483700 -82.104897 1.029331 48.528612 30.835945 -36.902429 -9.107344 -0.312836 2.859091 -19.996724 -7.125000 0.000000 0.000000 85.774714 1.381946 40.836946 -23.839574 31.851980 -4.246550 -1.583752 -1.673755 3.811931 7.125000 0.000000 0.000000 
1.762267 17.999025 0.594322 131.891248 87.935151 144.530576 -14.680501 0.457968 -15.961026 0.787349 4.241580 12.470147 1.614345 -5.458621 4.524474 2.013700 -8.894700 -25.466400 3.199081 1.217672 -1.219997 -0.468679 0.391590 0.918001 0.165966 -1.620801 6.406187 0.000000 0.000000 0.000000 1.569801 -1.066430 -3.694152 -3.278744 -0.372105 2.746899 5.304445 -1.595553 22.411121 -0.305000 0.292200 10.467900 -82.274488 1.036691 48.275364 29.918774 -35.986937 -8.540230 -0.307454 2.737660 -18.744551 -7.125000 0.000000 0.000000 85.875720 1.206710 40.538015 -23.709197 31.727742 -4.209796 -1.602025 -1.648830 4.140356 7.125000 0.000000 0.000000 
1.763627 17.999705 0.593933 133.004636 88.002776 145.648477 -14.586716 0.500324 -15.988446 0.785581 4.252416 12.481646 1.614413 -5.449686 4.504481 2.035500 -8.939600 -25.606400 3.196390 1.219282 -1.217625 -0.468685 0.393726 0.918993 0.166596 -1.618518 6.406719 0.000000 0.000000 0.000000 1.657785 -1.067943 -3.770516 -3.282616 -0.373060 2.686088 5.368395 -1.586406 22.385212 -0.280900 0.300800 10.457900 -82.448835 0.974873 47.897436 29.000924 -35.047774 -7.993360 -0.352514 2.632358 -17.149510 -7.125000 0.000000 0.000000 85.957142 1.026325 40.164932 -23.631030 31.661776 -4.204130 -1.643887 -1.612587 4.690264 7.125000 0.000000 0.000000 
